# xmcd
#
# Track frame offsets:
#	150
#	18471
#	34605
#	49283
#	69075
#	85053
#	102701
#	116628
#	131842
#	145674
#	160767
#	183906
#	196102
#	211687
#	229482
#	251883
#	263752
#	290856
#
# Disc length: 3893 seconds
#
# Revision: 1
# Processed by: cddbd v1.5.2PL0 Copyright (c) Steve Scherf et al.
# Submitted via: audiograbber 1.83.01
#
DISCID=070f3312
DTITLE=Chartbusters - Country 500 Vol.1 d.17
DYEAR=1900
DGENRE=karaoke
TTITLE0=Garth Brooks - Friends in low places
TTITLE1=Lorrie Morgan - Five Minutes
TTITLE2=George Strait - Love without end, amen
TTITLE3=Vince Gill - When I call your name
TTITLE4=Dolly Parton and Ricky Van Shelton - Rocking Years
TTITLE5=Garth Brooks - The Dance
TTITLE6=Alan Jackson - Don't rock the jukebox
TTITLE7=The Forrester sisters - Men
TTITLE8=Brooks and Dunn - Brand new man
TTITLE9=Diamond Rio - Meet me in the middle
TTITLE10=The Judds - Love can build a bridge
TTITLE11=Garth Brooks - Two of a Kind (Working on a Full House)
TTITLE12=Mary Chapin Carpenter - Down at the Twist and Shout
TTITLE13=Travis Tritt - Anymore
TTITLE14=Reba McIntire - Fancy
TTITLE15=Travis Tritt - Here's a Quarter (Call Someone Who Cares)
TTITLE16=Confederate Railroad - Queen of Memphis
TTITLE17=Data - Track 
EXTD=
EXTT0=
EXTT1=
EXTT2=
EXTT3=
EXTT4=
EXTT5=
EXTT6=
EXTT7=
EXTT8=
EXTT9=
EXTT10=
EXTT11=
EXTT12=
EXTT13=
EXTT14=
EXTT15=
EXTT16=
EXTT17=
PLAYORDER=
